<svg xmlns="http://www.w3.org/2000/svg" viewBox="0 0 960 540" role="img" aria-label="Stylized world map">
  <defs>
    <linearGradient id="water" x1="0" x2="1" y1="0" y2="1">
      <stop offset="0" stop-color="#e0f2fe"/>
      <stop offset="1" stop-color="#ecfeff"/>
    </linearGradient>
    <linearGradient id="land" x1="0" x2="1" y1="0" y2="1">
      <stop offset="0" stop-color="#bbf7d0"/>
      <stop offset="1" stop-color="#86efac"/>
    </linearGradient>
  </defs>
  <rect width="960" height="540" fill="url(#water)"/>
  <path d="M129 150c24-28 65-48 103-44 34 3 51 26 77 29 28 4 57-18 83-4 20 11 12 38 31 49 16 10 40-3 56 12 18 17 6 47-15 61-22 15-51 10-73 26-20 14-22 39-42 51-24 15-56 1-73-21-15-19-18-44-35-61-23-23-61-20-87-39-20-15-40-35-25-59Z" fill="url(#land)" opacity=".95"/>
  <path d="M222 307c25 7 43 29 55 51 10 20 19 45 6 64-12 18-38 19-55 7-25-16-36-47-56-68-12-12-30-23-27-41 4-25 50-21 77-13Z" fill="url(#land)" opacity=".95"/>
  <path d="M428 128c28-20 77-25 102-3 23 20 1 49 12 74 12 27 55 23 77 43 19 17 18 47 3 68-17 24-48 32-73 47-28 17-52 43-86 44-29 1-49-21-45-49 4-33 40-49 42-82 2-32-32-50-51-76-17-23-6-49 19-66Z" fill="url(#land)" opacity=".95"/>
  <path d="M504 300c33-9 70 1 93 26 21 23 18 58-7 77-27 21-65 15-99 12-24-2-52 2-69-16-17-19-8-47 9-64 19-19 46-28 73-35Z" fill="url(#land)" opacity=".95"/>
  <path d="M637 134c43-15 99-1 130 32 26 27 30 68 9 99-19 28-54 38-83 54-27 14-49 41-82 39-30-2-53-30-48-59 5-31 39-45 50-74 13-34-20-66 2-88 6-6 13-10 22-13Z" fill="url(#land)" opacity=".95"/>
  <path d="M745 330c24-14 64-8 84 12 20 21 18 57-1 79-21 25-59 31-89 18-26-11-46-38-38-66 5-18 22-33 44-43Z" fill="url(#land)" opacity=".95"/>
  <path d="M809 245c16-9 39-7 52 6 15 16 9 42-9 54-20 13-50 8-62-13-10-18 1-37 19-47Z" fill="url(#land)" opacity=".95"/>
  <path d="M58 78c242-46 492-49 743-8M64 472c238 28 491 23 742-9" fill="none" stroke="#38bdf8" stroke-width="2" opacity=".25"/>
  <path d="M92 270h776M480 56v428" fill="none" stroke="#0284c7" stroke-width="2" opacity=".18"/>
  <g fill="#0f766e" opacity=".5">
    <circle cx="157" cy="183" r="5"/>
    <circle cx="266" cy="143" r="4"/>
    <circle cx="470" cy="169" r="5"/>
    <circle cx="555" cy="334" r="4"/>
    <circle cx="690" cy="216" r="5"/>
    <circle cx="788" cy="382" r="4"/>
  </g>
</svg>
